X Lossless Decoder version 20110502 (132.0)

XLD extraction logfile from 2011-05-05 10:42:06 +0900

Various Artists / ゴッドタン 芸人マジ歌選手権レボリューション

Used drive : HL-DT-ST BD-RE  BH10NS30 (revision EL00)

Ripper mode             : CDParanoia III 10.2
Disable audio cache     : OK for the drive with a cache less than 2750KiB
Make use of C2 pointers : NO
Read offset correction  : 667
Max retry count         : 100
Gap status              : Analyzed, Appended

TOC of the extracted CD
     Track |   Start  |  Length  | Start sector | End sector 
    ---------------------------------------------------------
        1  | 00:00:00 | 03:40:69 |         0    |    16568   
        2  | 03:40:69 | 02:24:28 |     16569    |    27396   
        3  | 06:05:22 | 04:03:06 |     27397    |    45627   

AccurateRip Summary
    Disc not found in AccurateRip DB.

All Tracks
    Filename : /Users/angelicalbite/Music/flac/ゴッドタン 芸人マジ歌選手権レボリューション.flac
    CRC32 hash             : 0DCDC10B
    CRC32 hash (skip zero) : D4339A59
    Statistics
        Read error                           : 0
        Skipped (treated as error)           : 0
        Edge jitter error (maybe fixed)      : 0
        Atom jitter error (maybe fixed)      : 0
        Drift error (maybe fixed)            : 0
        Dropped bytes error (maybe fixed)    : 0
        Duplicated bytes error (maybe fixed) : 0

Track 01
    Pre-gap length : 00:02:00

    CRC32 hash             : 4956C95A
    CRC32 hash (skip zero) : E85F6CDA
    AccurateRip signature  : 9C050D01
        ->Track not present in AccurateRip database.
    Statistics
        Read error                           : 0
        Skipped (treated as error)           : 0
        Edge jitter error (maybe fixed)      : 0
        Atom jitter error (maybe fixed)      : 0
        Drift error (maybe fixed)            : 0
        Dropped bytes error (maybe fixed)    : 0
        Duplicated bytes error (maybe fixed) : 0

Track 02
    Pre-gap length : 00:00:72

    CRC32 hash             : 0F307324
    CRC32 hash (skip zero) : E34B4A29
    AccurateRip signature  : 888C78D8
        ->Track not present in AccurateRip database.
    Statistics
        Read error                           : 0
        Skipped (treated as error)           : 0
        Edge jitter error (maybe fixed)      : 0
        Atom jitter error (maybe fixed)      : 0
        Drift error (maybe fixed)            : 0
        Dropped bytes error (maybe fixed)    : 0
        Duplicated bytes error (maybe fixed) : 0

Track 03
    Pre-gap length : 00:01:72

    CRC32 hash             : C40472A6
    CRC32 hash (skip zero) : 95ECA49F
    AccurateRip signature  : 2B197F78
        ->Track not present in AccurateRip database.
    Statistics
        Read error                           : 0
        Skipped (treated as error)           : 0
        Edge jitter error (maybe fixed)      : 0
        Atom jitter error (maybe fixed)      : 0
        Drift error (maybe fixed)            : 0
        Dropped bytes error (maybe fixed)    : 0
        Duplicated bytes error (maybe fixed) : 0

No errors occurred

End of status report
